<?xml version="1.0" standalone="no"?>
<!DOCTYPE svg PUBLIC "-//W3C//DTD SVG 20010904//EN"
 "http://www.w3.org/TR/2001/REC-SVG-20010904/DTD/svg10.dtd">
<svg version="1.0" xmlns="http://www.w3.org/2000/svg"
 width="1177.000000pt" height="1280.000000pt" viewBox="0 0 1177.000000 1280.000000"
 preserveAspectRatio="xMidYMid meet">
<metadata>
Created by potrace 1.15, written by Peter Selinger 2001-2017
</metadata>
<g transform="translate(0.000000,1280.000000) scale(0.100000,-0.100000)"
fill="#000000" stroke="none">
<path d="M4670 12627 c-72 -36 -85 -106 -84 -442 1 -579 122 -1057 408 -1611
127 -246 129 -262 36 -274 l-51 -7 -44 61 c-109 155 -241 391 -316 566 -82
191 -175 517 -224 785 -37 200 -51 434 -37 631 9 140 9 161 -5 177 -14 15 -36
17 -173 17 -187 0 -185 1 -200 -111 -17 -132 -23 -447 -11 -604 36 -479 125
-801 364 -1325 l25 -56 -107 14 c-72 10 -203 15 -406 15 -252 0 -324 -3 -450
-21 -181 -26 -409 -74 -394 -83 6 -3 -24 -10 -67 -14 -44 -3 -142 -17 -219
-30 -501 -84 -967 -269 -1383 -549 -169 -113 -167 -112 -158 -97 5 7 -5 37
-22 69 -43 83 -80 191 -98 290 -17 100 -20 332 -5 437 15 102 14 130 -3 116
-23 -19 -64 -115 -86 -201 -45 -175 -35 -353 30 -533 36 -99 110 -223 131
-219 8 1 -4 -14 -26 -34 -22 -20 -91 -84 -153 -142 l-113 -104 -52 26 c-86 42
-161 125 -218 241 -225 462 -87 1022 362 1465 56 55 99 100 96 100 -14 0 -189
-154 -273 -241 -165 -170 -276 -347 -343 -544 -103 -307 -89 -555 47 -819 76
-149 160 -237 265 -280 l54 -22 -88 -108 c-372 -459 -594 -1005 -664 -1636 -8
-74 -15 -171 -15 -215 0 -140 97 -735 141 -867 30 -90 147 -328 212 -430 154
-243 398 -500 621 -651 151 -103 412 -214 626 -265 183 -45 292 -55 502 -49
258 7 412 43 628 145 53 25 114 46 137 48 66 5 240 52 333 90 236 96 435 276
550 497 39 77 69 182 55 195 -4 4 -10 2 -12 -5 -2 -6 -36 -59 -74 -117 -73
-111 -218 -272 -299 -331 -71 -52 -194 -112 -300 -146 -52 -17 -101 -36 -110
-42 -8 -7 -2 4 13 23 95 120 125 160 173 237 30 48 66 123 81 167 25 75 27 93
27 251 0 202 -15 270 -95 434 -38 78 -66 119 -113 167 -67 69 -95 79 -116 39
-12 -22 -10 -28 22 -67 83 -102 125 -201 152 -357 31 -181 16 -342 -42 -458
-71 -141 -237 -328 -350 -395 -117 -70 -137 -76 -227 -65 -549 62 -959 291
-1274 712 -287 382 -414 791 -414 1325 0 282 42 534 136 805 185 537 567 1040
1038 1368 109 75 322 199 385 223 24 9 42 20 39 24 -2 4 21 13 53 19 l57 12
33 -38 c46 -52 127 -221 153 -318 30 -111 37 -345 15 -470 -50 -288 -208 -569
-461 -819 -74 -73 -81 -83 -42 -55 73 50 241 213 323 311 133 159 234 360 286
563 19 76 23 115 22 255 0 150 -3 173 -27 253 -29 93 -90 224 -139 295 -17 24
-28 45 -26 47 6 5 292 34 403 40 61 3 115 2 121 -2 18 -13 72 -127 100 -210
58 -179 69 -416 28 -660 -3 -20 -1 -33 6 -33 18 0 49 60 82 160 31 91 32 102
33 255 0 138 -3 171 -23 239 -25 88 -86 226 -105 238 -20 13 111 9 241 -7 434
-54 824 -176 1227 -384 185 -95 311 -173 513 -319 320 -230 442 -313 632 -429
264 -162 384 -240 520 -341 577 -427 1031 -1033 1236 -1647 75 -227 148 -525
172 -708 l9 -67 -86 -83 c-202 -194 -432 -343 -666 -431 -56 -21 -69 -22 -195
-15 -406 23 -751 173 -1030 449 -224 222 -361 472 -421 770 -27 135 -31 332
-10 450 32 181 125 395 231 534 33 44 60 81 60 84 0 11 -66 -46 -115 -101
-137 -150 -235 -346 -265 -533 -15 -92 -12 -447 4 -526 80 -373 309 -738 611
-969 152 -117 426 -257 508 -260 19 -1 5 -5 -33 -11 -85 -13 -285 5 -416 37
-287 69 -511 195 -723 405 -307 304 -450 681 -419 1098 12 161 80 356 175 499
55 84 173 203 252 257 148 99 290 144 476 153 141 6 224 -9 318 -59 83 -45
180 -142 214 -214 26 -54 28 -69 28 -179 0 -111 -2 -125 -29 -182 -24 -53 -27
-65 -16 -78 32 -39 78 4 122 113 19 49 22 76 22 187 0 113 -3 137 -22 185 -69
163 -260 315 -447 355 -153 32 -376 10 -545 -56 -98 -37 -234 -119 -319 -189
-143 -120 -290 -349 -362 -565 l-34 -100 0 -280 c0 -307 1 -312 82 -530 255
-690 909 -1126 1686 -1125 283 1 564 61 857 184 45 20 86 33 90 31 17 -11 388
98 403 119 14 18 -3 -131 -28 -260 -42 -210 -136 -494 -175 -529 -12 -10 -20
-31 -20 -48 0 -38 -98 -224 -197 -377 -269 -410 -585 -701 -998 -916 -127 -66
-319 -126 -508 -159 -290 -49 -484 -119 -741 -267 -124 -70 -131 -74 -122 -59
8 12 -122 48 -219 62 -101 14 -247 6 -348 -20 -81 -21 -239 -90 -232 -102 3
-3 -62 -9 -143 -12 -223 -8 -358 -53 -556 -184 -198 -131 -370 -332 -492 -575
-58 -116 -117 -258 -111 -265 3 -2 21 31 41 74 187 393 507 686 860 788 225
64 502 49 652 -36 50 -28 134 -109 134 -128 0 -5 -24 -46 -54 -91 -115 -172
-205 -377 -253 -580 -30 -130 -43 -413 -24 -538 50 -316 199 -632 386 -817 99
-98 273 -231 353 -270 169 -83 351 -120 547 -112 104 4 135 10 227 40 232 78
390 189 500 351 114 167 145 339 93 522 -38 138 -186 270 -338 304 -75 17
-107 8 -107 -29 0 -30 14 -41 53 -41 70 0 211 -109 262 -202 29 -51 30 -58 30
-178 0 -123 -1 -126 -36 -200 -83 -174 -255 -315 -478 -390 -221 -74 -540 -22
-758 123 -454 303 -652 910 -478 1467 38 121 125 290 202 395 91 123 301 330
383 378 l65 37 3 -36 c4 -44 -8 -74 -71 -183 -91 -153 -168 -357 -203 -536
-25 -125 -25 -405 -1 -529 39 -195 117 -383 230 -554 90 -137 126 -174 289
-296 179 -136 226 -159 423 -206 19 -5 45 0 45 8 0 4 -10 9 -22 9 -13 1 -24 7
-26 13 -2 5 -12 10 -21 10 -22 0 -191 85 -257 130 -180 122 -351 337 -438 550
-79 193 -112 388 -103 605 15 380 171 706 481 1007 121 118 348 257 482 296
410 119 572 169 646 198 47 19 99 37 115 39 50 7 396 115 483 152 489 206 889
628 1211 1280 76 154 100 189 161 240 34 28 197 48 308 38 161 -14 393 -65
469 -104 20 -10 67 -32 104 -50 230 -107 430 -311 557 -566 73 -147 109 -278
118 -430 23 -372 -114 -680 -386 -864 -213 -144 -497 -170 -709 -66 -82 40
-143 103 -193 197 -27 51 -31 69 -31 133 0 89 26 170 75 233 28 35 33 48 25
63 -16 31 -49 22 -92 -23 -79 -83 -125 -239 -106 -358 18 -116 128 -270 240
-337 258 -153 661 -118 925 81 86 64 187 174 251 274 69 106 84 142 116 272
61 243 67 301 47 475 -54 465 -292 837 -693 1080 -75 45 -77 48 -58 62 12 8
47 23 78 34 66 23 204 30 211 11 2 -7 10 -12 18 -12 16 0 196 -76 272 -114
134 -68 329 -250 430 -401 95 -143 163 -299 199 -460 19 -87 28 -345 15 -445
-5 -42 -24 -111 -41 -153 -36 -92 -40 -116 -9 -68 12 19 32 71 44 115 13 45
35 119 49 166 36 115 41 215 20 385 -18 147 -43 231 -101 347 -19 38 -32 68
-28 68 9 0 92 -181 127 -281 34 -92 67 -221 85 -329 l9 -55 2 53 c0 28 -6 98
-14 155 -51 338 -149 568 -341 797 -104 124 -234 224 -376 290 -35 16 -57 29
-49 29 7 1 22 12 32 25 58 73 284 75 490 5 142 -49 282 -133 435 -263 127
-108 145 -104 65 16 -63 94 -187 213 -277 266 -242 143 -562 173 -734 68 -85
-52 -117 -66 -147 -66 -22 0 -25 -2 -13 -10 19 -13 -67 -2 -93 12 -38 20 -176
56 -277 73 -141 25 -396 25 -545 2 -128 -20 -328 -71 -318 -80 3 -4 -9 -7 -27
-7 -40 0 -80 39 -80 78 0 16 13 93 29 172 49 240 65 406 65 680 0 477 -76 866
-257 1307 -52 126 -164 355 -233 474 -25 43 -48 94 -51 113 -9 56 28 83 187
141 260 94 557 262 780 442 182 146 380 362 513 561 70 105 196 351 190 372
-10 34 42 -40 78 -112 91 -181 124 -345 116 -578 -4 -119 -11 -178 -31 -255
-44 -176 -113 -353 -183 -468 -54 -89 -33 -79 26 12 121 188 209 388 253 572
19 81 22 123 22 294 1 157 -3 215 -17 267 -29 118 -76 223 -141 322 l-64 97
14 37 c7 20 23 71 35 112 40 141 109 173 233 108 78 -42 209 -170 271 -266 88
-138 135 -258 184 -482 14 -63 30 -115 35 -115 35 0 32 271 -3 393 -43 148
-127 286 -245 402 -88 87 -164 136 -250 161 -154 47 -160 57 -157 264 7 506
-151 958 -471 1340 -141 170 -224 237 -455 374 -221 130 -335 173 -542 202
-103 14 -354 6 -461 -15 -102 -21 -211 -57 -204 -67 3 -5 -37 -9 -88 -9 -110
0 -299 -22 -395 -46 -161 -40 -399 -172 -542 -301 -158 -142 -276 -335 -327
-533 -36 -142 -12 -352 58 -499 82 -174 322 -321 523 -321 71 0 98 15 93 51
-3 22 -9 25 -68 30 -123 12 -232 64 -336 161 -70 66 -104 127 -127 228 -24
106 -29 182 -17 250 44 241 201 460 443 621 160 105 306 153 527 171 296 25
561 -46 823 -222 139 -93 239 -180 328 -287 262 -312 401 -676 416 -1094 15
-427 -93 -772 -365 -1169 -164 -238 -342 -411 -598 -580 -104 -69 -312 -180
-336 -180 -8 0 -56 49 -107 110 -126 148 -388 403 -541 525 -133 107 -430 310
-569 389 -46 27 -130 78 -185 113 -206 133 -234 164 -281 313 -49 156 -56 388
-19 613 10 60 -12 44 -50 -35 -47 -99 -66 -179 -77 -326 -10 -132 -17 -157
-48 -167 -44 -14 -147 70 -335 273 l-59 63 18 67 c54 204 202 438 402 640 56
56 99 102 96 102 -14 0 -157 -124 -248 -216 -127 -128 -203 -231 -287 -391
-37 -71 -68 -121 -68 -113 0 9 -27 51 -59 93 -290 379 -484 785 -600 1257 -77
316 -101 502 -101 803 0 199 -7 227 -61 246 -43 15 -148 14 -179 -2z m4006
-656 c360 -69 680 -279 926 -606 311 -414 427 -1022 291 -1533 -14 -53 -26
-104 -26 -114 -1 -14 -7 -13 -42 8 -63 36 -152 64 -208 64 -43 0 -48 2 -42 18
13 33 18 376 6 481 -42 389 -194 755 -440 1061 -79 99 -229 247 -296 293 -87
60 -330 204 -400 237 -57 27 -194 70 -280 86 -36 8 -30 9 65 20 136 16 320 10
446 -15z m1040 -2316 c115 -56 113 -51 46 -186 -64 -128 -182 -312 -277 -434
-67 -85 -248 -266 -330 -330 -27 -21 -70 -57 -94 -79 l-44 -41 47 60 c238 302
387 601 465 935 13 52 25 101 27 109 7 21 78 6 160 -34z m-8489 -447 c-66 -81
-194 -287 -264 -425 -129 -251 -222 -518 -277 -793 -67 -331 -75 -556 -32
-835 67 -433 103 -570 203 -769 140 -279 314 -503 547 -704 120 -104 188 -151
306 -215 161 -87 463 -195 551 -198 27 -1 22 -3 -21 -11 -90 -16 -389 -3 -505
22 -429 91 -775 315 -1043 673 -218 291 -335 583 -381 947 -39 312 -37 464 10
743 76 457 269 867 591 1260 64 78 331 347 344 347 3 0 -10 -19 -29 -42z
m5624 -445 c13 -16 12 -17 -3 -4 -10 7 -18 15 -18 17 0 8 8 3 21 -13z m249
-185 c128 -96 268 -217 391 -339 l119 -117 -44 -11 c-24 -6 -50 -13 -58 -16
-10 -4 -52 38 -130 132 -98 117 -288 314 -468 483 -47 44 -30 32 190 -132z
m766 -775 c8 -10 47 -67 87 -128 193 -289 327 -573 417 -885 95 -326 137 -573
111 -651 -7 -22 -44 -68 -100 -122 l-88 -87 -7 107 c-36 573 -198 1093 -506
1622 -39 67 -70 124 -68 126 3 3 118 32 132 34 5 1 15 -7 22 -16z m631 -2120
c11 -28 14 -55 9 -108 -12 -122 -45 -306 -78 -425 -17 -63 -31 -123 -32 -132
0 -13 -30 -27 -114 -56 -108 -37 -114 -38 -109 -18 58 239 83 386 112 649 4
31 11 57 17 57 6 0 19 6 27 14 30 26 96 56 124 56 23 0 31 -7 44 -37z m1082
-729 l-40 -41 -102 40 c-56 21 -103 40 -104 41 -1 0 63 1 142 1 l144 0 -40
-41z m-1315 -282 c-7 -4 -34 -50 -61 -102 -133 -256 -306 -491 -526 -715 l-88
-90 95 142 c110 165 215 352 291 520 30 65 59 125 64 134 9 16 205 119 225
119 7 0 7 -3 0 -8z m-3344 -1913 c36 -6 71 -12 79 -12 7 0 -22 -32 -65 -71
-44 -38 -107 -100 -141 -136 -35 -36 -63 -60 -63 -53 0 18 -100 123 -145 151
-22 14 -70 37 -107 52 l-66 26 56 13 c175 41 327 51 452 30z"/>
<path d="M7668 11783 c-37 -10 -193 -193 -211 -248 -4 -11 30 19 76 66 82 87
179 171 207 182 18 6 -47 7 -72 0z"/>
<path d="M5808 7793 c7 -3 16 -2 19 1 4 3 -2 6 -13 5 -11 0 -14 -3 -6 -6z"/>
<path d="M4093 2593 c9 -2 25 -2 35 0 9 3 1 5 -18 5 -19 0 -27 -2 -17 -5z"/>
</g>
</svg>
